<?xml version="1.0" encoding="UTF-8"?>
<!DOCTYPE svg PUBLIC "-//W3C//DTD SVG 1.1//EN" "http://www.w3.org/Graphics/SVG/1.1/DTD/svg11.dtd">
<svg width="354mm" height="151mm" viewBox="0 0 35400 15100" version="1.1" xmlns="http://www.w3.org/2000/svg" stroke-width="28.222" stroke-linejoin="round" xml:space="preserve">
 <path fill="rgb(255,255,255)" stroke="none" d="M 17688,15062 L 0,15062 0,0 35375,0 35375,15062 17688,15062 Z"/>
 <path fill="none" stroke="rgb(179,179,179)" stroke-linejoin="round" d="M 2525,13282 L 2525,13132"/>
 <path fill="none" stroke="rgb(179,179,179)" stroke-linejoin="round" d="M 2525,13282 L 2525,13132"/>
 <path fill="none" stroke="rgb(179,179,179)" stroke-linejoin="round" d="M 2853,13282 L 2853,13132"/>
 <path fill="none" stroke="rgb(179,179,179)" stroke-linejoin="round" d="M 2853,13282 L 2853,13132"/>
 <path fill="none" stroke="rgb(179,179,179)" stroke-linejoin="round" d="M 3181,13282 L 3181,13132"/>
 <path fill="none" stroke="rgb(179,179,179)" stroke-linejoin="round" d="M 3181,13282 L 3181,13132"/>
 <path fill="none" stroke="rgb(179,179,179)" stroke-linejoin="round" d="M 3509,13282 L 3509,13132"/>
 <path fill="none" stroke="rgb(179,179,179)" stroke-linejoin="round" d="M 3509,13282 L 3509,13132"/>
 <path fill="none" stroke="rgb(179,179,179)" stroke-linejoin="round" d="M 3837,13282 L 3837,13132"/>
 <path fill="none" stroke="rgb(179,179,179)" stroke-linejoin="round" d="M 3837,13282 L 3837,13132"/>
 <path fill="none" stroke="rgb(179,179,179)" stroke-linejoin="round" d="M 4165,13282 L 4165,13132"/>
 <path fill="none" stroke="rgb(179,179,179)" stroke-linejoin="round" d="M 4165,13282 L 4165,13132"/>
 <path fill="none" stroke="rgb(179,179,179)" stroke-linejoin="round" d="M 4493,13282 L 4493,13132"/>
 <path fill="none" stroke="rgb(179,179,179)" stroke-linejoin="round" d="M 4493,13282 L 4493,13132"/>
 <path fill="none" stroke="rgb(179,179,179)" stroke-linejoin="round" d="M 4821,13282 L 4821,13132"/>
 <path fill="none" stroke="rgb(179,179,179)" stroke-linejoin="round" d="M 4821,13282 L 4821,13132"/>
 <path fill="none" stroke="rgb(179,179,179)" stroke-linejoin="round" d="M 5149,13282 L 5149,13132"/>
 <path fill="none" stroke="rgb(179,179,179)" stroke-linejoin="round" d="M 5149,13282 L 5149,13132"/>
 <path fill="none" stroke="rgb(179,179,179)" stroke-linejoin="round" d="M 5477,13282 L 5477,13132"/>
 <path fill="none" stroke="rgb(179,179,179)" stroke-linejoin="round" d="M 5477,13282 L 5477,13132"/>
 <path fill="none" stroke="rgb(179,179,179)" stroke-linejoin="round" d="M 5805,13282 L 5805,13132"/>
 <path fill="none" stroke="rgb(179,179,179)" stroke-linejoin="round" d="M 5805,13282 L 5805,13132"/>
 <path fill="none" stroke="rgb(179,179,179)" stroke-linejoin="round" d="M 6133,13282 L 6133,13132"/>
 <path fill="none" stroke="rgb(179,179,179)" stroke-linejoin="round" d="M 6133,13282 L 6133,13132"/>
 <path fill="none" stroke="rgb(179,179,179)" stroke-linejoin="round" d="M 6461,13282 L 6461,13132"/>
 <path fill="none" stroke="rgb(179,179,179)" stroke-linejoin="round" d="M 6461,13282 L 6461,13132"/>
 <path fill="none" stroke="rgb(179,179,179)" stroke-linejoin="round" d="M 6788,13282 L 6788,13132"/>
 <path fill="none" stroke="rgb(179,179,179)" stroke-linejoin="round" d="M 6788,13282 L 6788,13132"/>
 <path fill="none" stroke="rgb(179,179,179)" stroke-linejoin="round" d="M 7117,13282 L 7117,13132"/>
 <path fill="none" stroke="rgb(179,179,179)" stroke-linejoin="round" d="M 7117,13282 L 7117,13132"/>
 <path fill="none" stroke="rgb(179,179,179)" stroke-linejoin="round" d="M 7444,13282 L 7444,13132"/>
 <path fill="none" stroke="rgb(179,179,179)" stroke-linejoin="round" d="M 7444,13282 L 7444,13132"/>
 <path fill="none" stroke="rgb(179,179,179)" stroke-linejoin="round" d="M 7773,13282 L 7773,13132"/>
 <path fill="none" stroke="rgb(179,179,179)" stroke-linejoin="round" d="M 7773,13282 L 7773,13132"/>
 <path fill="none" stroke="rgb(179,179,179)" stroke-linejoin="round" d="M 8101,13282 L 8101,13132"/>
 <path fill="none" stroke="rgb(179,179,179)" stroke-linejoin="round" d="M 8101,13282 L 8101,13132"/>
 <path fill="none" stroke="rgb(179,179,179)" stroke-linejoin="round" d="M 8429,13282 L 8429,13132"/>
 <path fill="none" stroke="rgb(179,179,179)" stroke-linejoin="round" d="M 8429,13282 L 8429,13132"/>
 <path fill="none" stroke="rgb(179,179,179)" stroke-linejoin="round" d="M 8757,13282 L 8757,13132"/>
 <path fill="none" stroke="rgb(179,179,179)" stroke-linejoin="round" d="M 8757,13282 L 8757,13132"/>
 <path fill="none" stroke="rgb(179,179,179)" stroke-linejoin="round" d="M 9085,13282 L 9085,13132"/>
 <path fill="none" stroke="rgb(179,179,179)" stroke-linejoin="round" d="M 9085,13282 L 9085,13132"/>
 <path fill="none" stroke="rgb(179,179,179)" stroke-linejoin="round" d="M 9413,13282 L 9413,13132"/>
 <path fill="none" stroke="rgb(179,179,179)" stroke-linejoin="round" d="M 9413,13282 L 9413,13132"/>
 <path fill="none" stroke="rgb(179,179,179)" stroke-linejoin="round" d="M 9741,13282 L 9741,13132"/>
 <path fill="none" stroke="rgb(179,179,179)" stroke-linejoin="round" d="M 9741,13282 L 9741,13132"/>
 <path fill="none" stroke="rgb(179,179,179)" stroke-linejoin="round" d="M 10069,13282 L 10069,13132"/>
 <path fill="none" stroke="rgb(179,179,179)" stroke-linejoin="round" d="M 10069,13282 L 10069,13132"/>
 <path fill="none" stroke="rgb(179,179,179)" stroke-linejoin="round" d="M 10397,13282 L 10397,13132"/>
 <path fill="none" stroke="rgb(179,179,179)" stroke-linejoin="round" d="M 10397,13282 L 10397,13132"/>
 <path fill="none" stroke="rgb(179,179,179)" stroke-linejoin="round" d="M 10725,13282 L 10725,13132"/>
 <path fill="none" stroke="rgb(179,179,179)" stroke-linejoin="round" d="M 10725,13282 L 10725,13132"/>
 <path fill="none" stroke="rgb(179,179,179)" stroke-linejoin="round" d="M 11052,13282 L 11052,13132"/>
 <path fill="none" stroke="rgb(179,179,179)" stroke-linejoin="round" d="M 11052,13282 L 11052,13132"/>
 <path fill="none" stroke="rgb(179,179,179)" stroke-linejoin="round" d="M 11381,13282 L 11381,13132"/>
 <path fill="none" stroke="rgb(179,179,179)" stroke-linejoin="round" d="M 11381,13282 L 11381,13132"/>
 <path fill="none" stroke="rgb(179,179,179)" stroke-linejoin="round" d="M 11709,13282 L 11709,13132"/>
 <path fill="none" stroke="rgb(179,179,179)" stroke-linejoin="round" d="M 11709,13282 L 11709,13132"/>
 <path fill="none" stroke="rgb(179,179,179)" stroke-linejoin="round" d="M 12037,13282 L 12037,13132"/>
 <path fill="none" stroke="rgb(179,179,179)" stroke-linejoin="round" d="M 12037,13282 L 12037,13132"/>
 <path fill="none" stroke="rgb(179,179,179)" stroke-linejoin="round" d="M 12364,13282 L 12364,13132"/>
 <path fill="none" stroke="rgb(179,179,179)" stroke-linejoin="round" d="M 12364,13282 L 12364,13132"/>
 <path fill="none" stroke="rgb(179,179,179)" stroke-linejoin="round" d="M 12692,13282 L 12692,13132"/>
 <path fill="none" stroke="rgb(179,179,179)" stroke-linejoin="round" d="M 12692,13282 L 12692,13132"/>
 <path fill="none" stroke="rgb(179,179,179)" stroke-linejoin="round" d="M 13021,13282 L 13021,13132"/>
 <path fill="none" stroke="rgb(179,179,179)" stroke-linejoin="round" d="M 13021,13282 L 13021,13132"/>
 <path fill="none" stroke="rgb(179,179,179)" stroke-linejoin="round" d="M 13349,13282 L 13349,13132"/>
 <path fill="none" stroke="rgb(179,179,179)" stroke-linejoin="round" d="M 13349,13282 L 13349,13132"/>
 <path fill="none" stroke="rgb(179,179,179)" stroke-linejoin="round" d="M 13677,13282 L 13677,13132"/>
 <path fill="none" stroke="rgb(179,179,179)" stroke-linejoin="round" d="M 13677,13282 L 13677,13132"/>
 <path fill="none" stroke="rgb(179,179,179)" stroke-linejoin="round" d="M 14004,13282 L 14004,13132"/>
 <path fill="none" stroke="rgb(179,179,179)" stroke-linejoin="round" d="M 14004,13282 L 14004,13132"/>
 <path fill="none" stroke="rgb(179,179,179)" stroke-linejoin="round" d="M 14332,13282 L 14332,13132"/>
 <path fill="none" stroke="rgb(179,179,179)" stroke-linejoin="round" d="M 14332,13282 L 14332,13132"/>
 <path fill="none" stroke="rgb(179,179,179)" stroke-linejoin="round" d="M 14661,13282 L 14661,13132"/>
 <path fill="none" stroke="rgb(179,179,179)" stroke-linejoin="round" d="M 14661,13282 L 14661,13132"/>
 <path fill="none" stroke="rgb(179,179,179)" stroke-linejoin="round" d="M 14989,13282 L 14989,13132"/>
 <path fill="none" stroke="rgb(179,179,179)" stroke-linejoin="round" d="M 14989,13282 L 14989,13132"/>
 <path fill="none" stroke="rgb(179,179,179)" stroke-linejoin="round" d="M 15316,13282 L 15316,13132"/>
 <path fill="none" stroke="rgb(179,179,179)" stroke-linejoin="round" d="M 15316,13282 L 15316,13132"/>
 <path fill="none" stroke="rgb(179,179,179)" stroke-linejoin="round" d="M 15644,13282 L 15644,13132"/>
 <path fill="none" stroke="rgb(179,179,179)" stroke-linejoin="round" d="M 15644,13282 L 15644,13132"/>
 <path fill="none" stroke="rgb(179,179,179)" stroke-linejoin="round" d="M 15972,13282 L 15972,13132"/>
 <path fill="none" stroke="rgb(179,179,179)" stroke-linejoin="round" d="M 15972,13282 L 15972,13132"/>
 <path fill="none" stroke="rgb(179,179,179)" stroke-linejoin="round" d="M 16301,13282 L 16301,13132"/>
 <path fill="none" stroke="rgb(179,179,179)" stroke-linejoin="round" d="M 16301,13282 L 16301,13132"/>
 <path fill="none" stroke="rgb(179,179,179)" stroke-linejoin="round" d="M 16629,13282 L 16629,13132"/>
 <path fill="none" stroke="rgb(179,179,179)" stroke-linejoin="round" d="M 16629,13282 L 16629,13132"/>
 <path fill="none" stroke="rgb(179,179,179)" stroke-linejoin="round" d="M 16957,13282 L 16957,13132"/>
 <path fill="none" stroke="rgb(179,179,179)" stroke-linejoin="round" d="M 16957,13282 L 16957,13132"/>
 <path fill="none" stroke="rgb(179,179,179)" stroke-linejoin="round" d="M 17285,13282 L 17285,13132"/>
 <path fill="none" stroke="rgb(179,179,179)" stroke-linejoin="round" d="M 17285,13282 L 17285,13132"/>
 <path fill="none" stroke="rgb(179,179,179)" stroke-linejoin="round" d="M 17613,13282 L 17613,13132"/>
 <path fill="none" stroke="rgb(179,179,179)" stroke-linejoin="round" d="M 17613,13282 L 17613,13132"/>
 <path fill="none" stroke="rgb(179,179,179)" stroke-linejoin="round" d="M 17940,13282 L 17940,13132"/>
 <path fill="none" stroke="rgb(179,179,179)" stroke-linejoin="round" d="M 17940,13282 L 17940,13132"/>
 <path fill="none" stroke="rgb(179,179,179)" stroke-linejoin="round" d="M 18268,13282 L 18268,13132"/>
 <path fill="none" stroke="rgb(179,179,179)" stroke-linejoin="round" d="M 18268,13282 L 18268,13132"/>
 <path fill="none" stroke="rgb(179,179,179)" stroke-linejoin="round" d="M 18596,13282 L 18596,13132"/>
 <path fill="none" stroke="rgb(179,179,179)" stroke-linejoin="round" d="M 18596,13282 L 18596,13132"/>
 <path fill="none" stroke="rgb(179,179,179)" stroke-linejoin="round" d="M 18924,13282 L 18924,13132"/>
 <path fill="none" stroke="rgb(179,179,179)" stroke-linejoin="round" d="M 18924,13282 L 18924,13132"/>
 <path fill="none" stroke="rgb(179,179,179)" stroke-linejoin="round" d="M 19251,13282 L 19251,13132"/>
 <path fill="none" stroke="rgb(179,179,179)" stroke-linejoin="round" d="M 19251,13282 L 19251,13132"/>
 <path fill="none" stroke="rgb(179,179,179)" stroke-linejoin="round" d="M 19579,13282 L 19579,13132"/>
 <path fill="none" stroke="rgb(179,179,179)" stroke-linejoin="round" d="M 19579,13282 L 19579,13132"/>
 <path fill="none" stroke="rgb(179,179,179)" stroke-linejoin="round" d="M 19907,13282 L 19907,13132"/>
 <path fill="none" stroke="rgb(179,179,179)" stroke-linejoin="round" d="M 19907,13282 L 19907,13132"/>
 <path fill="none" stroke="rgb(179,179,179)" stroke-linejoin="round" d="M 20236,13282 L 20236,13132"/>
 <path fill="none" stroke="rgb(179,179,179)" stroke-linejoin="round" d="M 20236,13282 L 20236,13132"/>
 <path fill="none" stroke="rgb(179,179,179)" stroke-linejoin="round" d="M 20564,13282 L 20564,13132"/>
 <path fill="none" stroke="rgb(179,179,179)" stroke-linejoin="round" d="M 20564,13282 L 20564,13132"/>
 <path fill="none" stroke="rgb(179,179,179)" stroke-linejoin="round" d="M 20892,13282 L 20892,13132"/>
 <path fill="none" stroke="rgb(179,179,179)" stroke-linejoin="round" d="M 20892,13282 L 20892,13132"/>
 <path fill="none" stroke="rgb(179,179,179)" stroke-linejoin="round" d="M 21220,13282 L 21220,13132"/>
 <path fill="none" stroke="rgb(179,179,179)" stroke-linejoin="round" d="M 21220,13282 L 21220,13132"/>
 <path fill="none" stroke="rgb(179,179,179)" stroke-linejoin="round" d="M 21548,13282 L 21548,13132"/>
 <path fill="none" stroke="rgb(179,179,179)" stroke-linejoin="round" d="M 21548,13282 L 21548,13132"/>
 <path fill="none" stroke="rgb(179,179,179)" stroke-linejoin="round" d="M 21876,13282 L 21876,13132"/>
 <path fill="none" stroke="rgb(179,179,179)" stroke-linejoin="round" d="M 21876,13282 L 21876,13132"/>
 <path fill="none" stroke="rgb(179,179,179)" stroke-linejoin="round" d="M 22203,13282 L 22203,13132"/>
 <path fill="none" stroke="rgb(179,179,179)" stroke-linejoin="round" d="M 22203,13282 L 22203,13132"/>
 <path fill="none" stroke="rgb(179,179,179)" stroke-linejoin="round" d="M 22531,13282 L 22531,13132"/>
 <path fill="none" stroke="rgb(179,179,179)" stroke-linejoin="round" d="M 22531,13282 L 22531,13132"/>
 <path fill="none" stroke="rgb(179,179,179)" stroke-linejoin="round" d="M 22859,13282 L 22859,13132"/>
 <path fill="none" stroke="rgb(179,179,179)" stroke-linejoin="round" d="M 22859,13282 L 22859,13132"/>
 <path fill="none" stroke="rgb(179,179,179)" stroke-linejoin="round" d="M 23187,13282 L 23187,13132"/>
 <path fill="none" stroke="rgb(179,179,179)" stroke-linejoin="round" d="M 23187,13282 L 23187,13132"/>
 <path fill="none" stroke="rgb(179,179,179)" stroke-linejoin="round" d="M 23516,13282 L 23516,13132"/>
 <path fill="none" stroke="rgb(179,179,179)" stroke-linejoin="round" d="M 23516,13282 L 23516,13132"/>
 <path fill="none" stroke="rgb(179,179,179)" stroke-linejoin="round" d="M 23844,13282 L 23844,13132"/>
 <path fill="none" stroke="rgb(179,179,179)" stroke-linejoin="round" d="M 23844,13282 L 23844,13132"/>
 <path fill="none" stroke="rgb(179,179,179)" stroke-linejoin="round" d="M 24172,13282 L 24172,13132"/>
 <path fill="none" stroke="rgb(179,179,179)" stroke-linejoin="round" d="M 24172,13282 L 24172,13132"/>
 <path fill="none" stroke="rgb(179,179,179)" stroke-linejoin="round" d="M 24500,13282 L 24500,13132"/>
 <path fill="none" stroke="rgb(179,179,179)" stroke-linejoin="round" d="M 24500,13282 L 24500,13132"/>
 <path fill="none" stroke="rgb(179,179,179)" stroke-linejoin="round" d="M 24828,13282 L 24828,13132"/>
 <path fill="none" stroke="rgb(179,179,179)" stroke-linejoin="round" d="M 24828,13282 L 24828,13132"/>
 <path fill="none" stroke="rgb(179,179,179)" stroke-linejoin="round" d="M 25155,13282 L 25155,13132"/>
 <path fill="none" stroke="rgb(179,179,179)" stroke-linejoin="round" d="M 25155,13282 L 25155,13132"/>
 <path fill="none" stroke="rgb(179,179,179)" stroke-linejoin="round" d="M 25483,13282 L 25483,13132"/>
 <path fill="none" stroke="rgb(179,179,179)" stroke-linejoin="round" d="M 25483,13282 L 25483,13132"/>
 <path fill="none" stroke="rgb(179,179,179)" stroke-linejoin="round" d="M 25811,13282 L 25811,13132"/>
 <path fill="none" stroke="rgb(179,179,179)" stroke-linejoin="round" d="M 25811,13282 L 25811,13132"/>
 <path fill="none" stroke="rgb(179,179,179)" stroke-linejoin="round" d="M 26139,13282 L 26139,13132"/>
 <path fill="none" stroke="rgb(179,179,179)" stroke-linejoin="round" d="M 26139,13282 L 26139,13132"/>
 <path fill="none" stroke="rgb(179,179,179)" stroke-linejoin="round" d="M 26467,13282 L 26467,13132"/>
 <path fill="none" stroke="rgb(179,179,179)" stroke-linejoin="round" d="M 26467,13282 L 26467,13132"/>
 <path fill="none" stroke="rgb(179,179,179)" stroke-linejoin="round" d="M 26796,13282 L 26796,13132"/>
 <path fill="none" stroke="rgb(179,179,179)" stroke-linejoin="round" d="M 26796,13282 L 26796,13132"/>
 <path fill="none" stroke="rgb(179,179,179)" stroke-linejoin="round" d="M 27124,13282 L 27124,13132"/>
 <path fill="none" stroke="rgb(179,179,179)" stroke-linejoin="round" d="M 27124,13282 L 27124,13132"/>
 <path fill="none" stroke="rgb(179,179,179)" stroke-linejoin="round" d="M 27452,13282 L 27452,13132"/>
 <path fill="none" stroke="rgb(179,179,179)" stroke-linejoin="round" d="M 27452,13282 L 27452,13132"/>
 <path fill="none" stroke="rgb(179,179,179)" stroke-linejoin="round" d="M 27780,13282 L 27780,13132"/>
 <path fill="none" stroke="rgb(179,179,179)" stroke-linejoin="round" d="M 27780,13282 L 27780,13132"/>
 <path fill="none" stroke="rgb(179,179,179)" stroke-linejoin="round" d="M 28107,13282 L 28107,13132"/>
 <path fill="none" stroke="rgb(179,179,179)" stroke-linejoin="round" d="M 28107,13282 L 28107,13132"/>
 <path fill="none" stroke="rgb(179,179,179)" stroke-linejoin="round" d="M 28435,13282 L 28435,13132"/>
 <path fill="none" stroke="rgb(179,179,179)" stroke-linejoin="round" d="M 28435,13282 L 28435,13132"/>
 <path fill="none" stroke="rgb(179,179,179)" stroke-linejoin="round" d="M 28763,13282 L 28763,13132"/>
 <path fill="none" stroke="rgb(179,179,179)" stroke-linejoin="round" d="M 28763,13282 L 28763,13132"/>
 <path fill="none" stroke="rgb(179,179,179)" stroke-linejoin="round" d="M 29091,13282 L 29091,13132"/>
 <path fill="none" stroke="rgb(179,179,179)" stroke-linejoin="round" d="M 29091,13282 L 29091,13132"/>
 <path fill="none" stroke="rgb(179,179,179)" stroke-linejoin="round" d="M 29419,13282 L 29419,13132"/>
 <path fill="none" stroke="rgb(179,179,179)" stroke-linejoin="round" d="M 29419,13282 L 29419,13132"/>
 <path fill="none" stroke="rgb(179,179,179)" stroke-linejoin="round" d="M 29747,13282 L 29747,13132"/>
 <path fill="none" stroke="rgb(179,179,179)" stroke-linejoin="round" d="M 29747,13282 L 29747,13132"/>
 <path fill="none" stroke="rgb(179,179,179)" stroke-linejoin="round" d="M 30076,13282 L 30076,13132"/>
 <path fill="none" stroke="rgb(179,179,179)" stroke-linejoin="round" d="M 30076,13282 L 30076,13132"/>
 <path fill="none" stroke="rgb(179,179,179)" stroke-linejoin="round" d="M 30404,13282 L 30404,13132"/>
 <path fill="none" stroke="rgb(179,179,179)" stroke-linejoin="round" d="M 30404,13282 L 30404,13132"/>
 <path fill="none" stroke="rgb(179,179,179)" stroke-linejoin="round" d="M 30732,13282 L 30732,13132"/>
 <path fill="none" stroke="rgb(179,179,179)" stroke-linejoin="round" d="M 30732,13282 L 30732,13132"/>
 <path fill="none" stroke="rgb(179,179,179)" stroke-linejoin="round" d="M 31059,13282 L 31059,13132"/>
 <path fill="none" stroke="rgb(179,179,179)" stroke-linejoin="round" d="M 31059,13282 L 31059,13132"/>
 <path fill="none" stroke="rgb(179,179,179)" stroke-linejoin="round" d="M 31387,13282 L 31387,13132"/>
 <path fill="none" stroke="rgb(179,179,179)" stroke-linejoin="round" d="M 31387,13282 L 31387,13132"/>
 <path fill="none" stroke="rgb(179,179,179)" stroke-linejoin="round" d="M 31715,13282 L 31715,13132"/>
 <path fill="none" stroke="rgb(179,179,179)" stroke-linejoin="round" d="M 31715,13282 L 31715,13132"/>
 <path fill="none" stroke="rgb(179,179,179)" stroke-linejoin="round" d="M 32043,13282 L 32043,13132"/>
 <path fill="none" stroke="rgb(179,179,179)" stroke-linejoin="round" d="M 32043,13282 L 32043,13132"/>
 <path fill="none" stroke="rgb(179,179,179)" stroke-linejoin="round" d="M 32371,13282 L 32371,13132"/>
 <path fill="none" stroke="rgb(179,179,179)" stroke-linejoin="round" d="M 32371,13282 L 32371,13132"/>
 <path fill="none" stroke="rgb(179,179,179)" stroke-linejoin="round" d="M 32699,13282 L 32699,13132"/>
 <path fill="none" stroke="rgb(179,179,179)" stroke-linejoin="round" d="M 32699,13282 L 32699,13132"/>
 <path fill="none" stroke="rgb(179,179,179)" stroke-linejoin="round" d="M 33028,13282 L 33028,13132"/>
 <path fill="none" stroke="rgb(179,179,179)" stroke-linejoin="round" d="M 33028,13282 L 33028,13132"/>
 <path fill="none" stroke="rgb(179,179,179)" stroke-linejoin="round" d="M 33356,13282 L 33356,13132"/>
 <path fill="none" stroke="rgb(179,179,179)" stroke-linejoin="round" d="M 33356,13282 L 33356,13132"/>
 <path fill="none" stroke="rgb(179,179,179)" stroke-linejoin="round" d="M 33684,13282 L 33684,13132"/>
 <path fill="none" stroke="rgb(179,179,179)" stroke-linejoin="round" d="M 33684,13282 L 33684,13132"/>
 <path fill="none" stroke="rgb(179,179,179)" stroke-linejoin="round" d="M 34012,13282 L 34012,13132"/>
 <path fill="none" stroke="rgb(179,179,179)" stroke-linejoin="round" d="M 34012,13282 L 34012,13132"/>
 <path fill="none" stroke="rgb(179,179,179)" stroke-linejoin="round" d="M 34340,13282 L 34340,13132"/>
 <path fill="none" stroke="rgb(179,179,179)" stroke-linejoin="round" d="M 34340,13282 L 34340,13132"/>
 <path fill="none" stroke="rgb(179,179,179)" stroke-linejoin="round" d="M 34668,13282 L 34668,13132"/>
 <path fill="none" stroke="rgb(179,179,179)" stroke-linejoin="round" d="M 34668,13282 L 34668,13132"/>
 <path fill="none" stroke="rgb(179,179,179)" stroke-linejoin="round" d="M 2525,13132 L 34668,13132"/>
 <path fill="none" stroke="rgb(179,179,179)" stroke-linejoin="round" d="M 2375,13132 L 2525,13132"/>
 <path fill="none" stroke="rgb(179,179,179)" stroke-linejoin="round" d="M 2375,13132 L 2525,13132"/>
 <path fill="none" stroke="rgb(179,179,179)" stroke-linejoin="round" d="M 2375,11863 L 2525,11863"/>
 <path fill="none" stroke="rgb(179,179,179)" stroke-linejoin="round" d="M 2375,11863 L 2525,11863"/>
 <path fill="none" stroke="rgb(179,179,179)" stroke-linejoin="round" d="M 2375,10594 L 2525,10594"/>
 <path fill="none" stroke="rgb(179,179,179)" stroke-linejoin="round" d="M 2375,10594 L 2525,10594"/>
 <path fill="none" stroke="rgb(179,179,179)" stroke-linejoin="round" d="M 2375,9326 L 2525,9326"/>
 <path fill="none" stroke="rgb(179,179,179)" stroke-linejoin="round" d="M 2375,9326 L 2525,9326"/>
 <path fill="none" stroke="rgb(179,179,179)" stroke-linejoin="round" d="M 2375,8057 L 2525,8057"/>
 <path fill="none" stroke="rgb(179,179,179)" stroke-linejoin="round" d="M 2375,8057 L 2525,8057"/>
 <path fill="none" stroke="rgb(179,179,179)" stroke-linejoin="round" d="M 2375,6789 L 2525,6789"/>
 <path fill="none" stroke="rgb(179,179,179)" stroke-linejoin="round" d="M 2375,6789 L 2525,6789"/>
 <path fill="none" stroke="rgb(179,179,179)" stroke-linejoin="round" d="M 2375,5520 L 2525,5520"/>
 <path fill="none" stroke="rgb(179,179,179)" stroke-linejoin="round" d="M 2375,5520 L 2525,5520"/>
 <path fill="none" stroke="rgb(179,179,179)" stroke-linejoin="round" d="M 2375,4252 L 2525,4252"/>
 <path fill="none" stroke="rgb(179,179,179)" stroke-linejoin="round" d="M 2375,4252 L 2525,4252"/>
 <path fill="none" stroke="rgb(179,179,179)" stroke-linejoin="round" d="M 2375,2983 L 2525,2983"/>
 <path fill="none" stroke="rgb(179,179,179)" stroke-linejoin="round" d="M 2375,2983 L 2525,2983"/>
 <path fill="none" stroke="rgb(179,179,179)" stroke-linejoin="round" d="M 2375,1715 L 2525,1715"/>
 <path fill="none" stroke="rgb(179,179,179)" stroke-linejoin="round" d="M 2375,1715 L 2525,1715"/>
 <path fill="none" stroke="rgb(179,179,179)" stroke-linejoin="round" d="M 2525,13132 L 2525,1715"/>
 <path fill="none" stroke="rgb(179,179,179)" stroke-width="50" stroke-linejoin="round" stroke-dasharray="99,99" d="M 18596,13132 L 18596,1715"/>
 <path fill="none" stroke="rgb(0,69,134)" stroke-width="80" stroke-linejoin="round" d="M 2525,8473 L 2853,8473 3181,8490 3509,8490 3837,8490 4165,8697 4493,8697 4821,8697 5149,8825 5477,8825 5805,9036 6133,9036 6461,9099 6789,9099 7117,9099 7445,9357 7773,9357 8101,9419 8429,9419 8757,9551 9085,9551 9413,9564 9741,9564 10069,10141 10397,10141 10725,10174 11053,10174 11381,10408 11709,10490 12037,10490 12365,10604 12693,10673 13021,10673 13349,10832 13677,10887 14005,11214 14333,11214 14661,11380 14989,11407 15317,11462 15645,11474 15973,11482 16301,11543 16629,11554 16957,11560 17285,11563 17613,11611 17940,11612 18268,11636 18596,11651 18924,11662 19252,11750 19580,11752 19908,11778 20236,11904 20564,11922 20892,11955 21220,12028 21548,12055 21876,12068 22204,12102 22532,12115 22860,12123 23188,12162 23516,12189 23844,12215 24172,12246 24500,12249 24828,12267 25156,12318 25484,12367 25812,12406 26140,12459 26468,12553 26796,12596 27124,12628 27452,12688 27780,12725 28108,12767 28436,12806 28764,12831 29092,12863 29420,12908 29748,12920 30076,12947 30404,12966 30732,12987 31060,13004 31388,13026 31716,13047 32044,13077 32372,13100 32700,13115 33028,13125 33356,13128 33684,13129 34012,13130 34340,13130 34668,13131"/>
 <path fill="none" stroke="rgb(255,66,14)" stroke-width="80" stroke-linejoin="round" d="M 2525,6386 L 2853,6386 3181,6386 3509,8291 3837,8291 4165,8291 4493,9037 4821,9037 5149,9037 5477,9269 5805,9269 6133,9404 6461,9404 6789,9435 7117,9435 7445,9562 7773,9562 8101,10135 8429,10135 8757,10286 9085,10286 9413,10451 9741,10509 10069,10509 10397,10605 10725,10714 11053,10714 11381,10786 11709,10803 12037,10933 12365,10933 12693,11056 13021,11060 13349,11080 13677,11121 14005,11121 14333,11137 14661,11143 14989,11222 15317,11289 15645,11301 15973,11319 16301,11325 16629,11432 16957,11477 17285,11527 17613,11557 17940,11602 18268,11614 18596,11624 18924,11669 19252,11692 19580,11709 19908,11716 20236,11742 20564,11760 20892,11803 21220,11816 21548,11883 21876,11976 22204,11987 22532,12090 22860,12128 23188,12130 23516,12186 23844,12233 24172,12255 24500,12266 24828,12334 25156,12368 25484,12379 25812,12434 26140,12470 26468,12538 26796,12567 27124,12603 27452,12682 27780,12698 28108,12737 28436,12761 28764,12805 29092,12817 29420,12840 29748,12864 30076,12904 30404,12928 30732,12952 31060,12993 31388,13019 31716,13043 32044,13059 32372,13082 32700,13101 33028,13121 33356,13126 33684,13128 34012,13129 34340,13130 34668,13130"/>
 <path fill="none" stroke="rgb(255,211,32)" stroke-width="80" stroke-linejoin="round" d="M 2525,8649 L 2853,8649 3181,8807 3509,8807 3837,8807 4165,9041 4493,9041 4821,9406 5149,9406 5477,9452 5805,9452 6133,9588 6461,9588 6789,9935 7117,9935 7445,10251 7773,10251 8101,10302 8429,10302 8757,10351 9085,10469 9413,10469 9741,10479 10069,10542 10397,10542 10725,10567 11053,10611 11381,10611 11709,10690 12037,10697 12365,10697 12693,10720 13021,10756 13349,10767 13677,10767 14005,11051 14333,11174 14661,11219 14989,11234 15317,11272 15645,11272 15973,11284 16301,11314 16629,11343 16957,11408 17285,11452 17613,11555 17940,11574 18268,11618 18596,11632 18924,11696 19252,11714 19580,11743 19908,11865 20236,11875 20564,11909 20892,11975 21220,11979 21548,12065 21876,12082 22204,12152 22532,12190 22860,12236 23188,12251 23516,12321 23844,12352 24172,12365 24500,12373 24828,12442 25156,12493 25484,12557 25812,12596 26140,12665 26468,12693 26796,12705 27124,12723 27452,12731 27780,12752 28108,12781 28436,12796 28764,12826 29092,12843 29420,12873 29748,12901 30076,12924 30404,12945 30732,12974 31060,12990 31388,13018 31716,13034 32044,13051 32372,13080 32700,13101 33028,13122 33356,13127 33684,13129 34012,13129 34340,13130 34668,13131"/>
 <path fill="none" stroke="rgb(87,157,28)" stroke-width="80" stroke-linejoin="round" d="M 2525,3083 L 2853,3083 3181,3083 3509,3083 3837,3083 4165,4339 4493,4339 4821,4339 5149,4339 5477,4339 5805,5214 6133,5214 6461,5214 6789,5214 7117,5214 7445,5334 7773,5334 8101,5334 8429,5334 8757,5596 9085,5596 9413,5596 9741,5596 10069,5841 10397,5841 10725,5841 11053,5841 11381,5900 11709,5900 12037,5900 12365,5900 12693,6086 13021,6086 13349,6086 13677,6086 14005,6126 14333,6126 14661,6126 14989,6126 15317,6512 15645,6512 15973,6512 16301,6512 16629,7296 16957,7296 17285,7296 17613,7569 17940,7569 18268,7569 18596,7627 18924,7627 19252,7627 19580,7627 19908,7636 20236,7636 20564,7636 20892,7799 21220,7799 21548,7799 21876,8268 22204,8268 22532,8582 22860,8582 23188,8582 23516,8708 23844,8708 24172,8759 24500,8759 24828,8759 25156,8785 25484,8785 25812,8804 26140,8804 26468,8804 26796,9057 27124,9057 27452,9206 27780,9206 28108,9716 28436,9716 28764,9755 29092,9755 29420,10132 29748,10132 30076,10156 30404,10163 30732,10163 31060,10845 31388,11117 31716,11117 32044,11735 32372,11852 32700,11980 33028,12114 33356,12348 33684,12369 34012,12659 34340,12702 34668,12785"/>
 <path fill="none" stroke="rgb(126,0,33)" stroke-width="80" stroke-linejoin="round" d="M 2525,3083 L 2853,3083 3181,3083 3509,3083 3837,3083 4165,4434 4493,4434 4821,4434 5149,4434 5477,4434 5805,5596 6133,5596 6461,5596 6789,5596 7117,5865 7445,5865 7773,5865 8101,5865 8429,6086 8757,6086 9085,6086 9413,6086 9741,6505 10069,6505 10397,6505 10725,6505 11053,6825 11381,6825 11709,6825 12037,6825 12365,7003 12693,7003 13021,7003 13349,7206 13677,7206 14005,7206 14333,7296 14661,7296 14989,7296 15317,7296 15645,7586 15973,7586 16301,7586 16629,7627 16957,7627 17285,7627 17613,7758 17940,7758 18268,7758 18596,7970 18924,7970 19252,7970 19580,8085 19908,8085 20236,8085 20564,8463 20892,8463 21220,8582 21548,8582 21876,8582 22204,8708 22532,8708 22860,8759 23188,8759 23516,8759 23844,8785 24172,8785 24500,8872 24828,8872 25156,8872 25484,9160 25812,9160 26140,9272 26468,9272 26796,9754 27124,9754 27452,9755 27780,9755 28108,10156 28436,10156 28764,10174 29092,10181 29420,10181 29748,10845 30076,11453 30404,11494 30732,11570 31060,11735 31388,11873 31716,12079 32044,12270 32372,12369 32700,12474 33028,12648 33356,12705 33684,12788 34012,12861 34340,12913 34668,12979"/>
 <path fill="none" stroke="rgb(131,202,255)" stroke-width="80" stroke-linejoin="round" d="M 2525,3023 L 2853,3023 3181,3023 3509,3023 3837,3023 4165,4372 4493,4372 4821,4372 5149,4372 5477,4372 5805,5552 6133,5552 6461,5552 6789,5552 7117,5900 7445,5900 7773,5900 8101,5900 8429,6092 8757,6092 9085,6092 9413,6092 9741,6250 10069,6250 10397,6250 10725,6250 11053,6554 11381,6554 11709,6554 12037,6554 12365,6687 12693,6687 13021,6687 13349,6687 13677,6772 14005,6772 14333,6772 14661,7392 14989,7392 15317,7392 15645,7636 15973,7636 16301,7636 16629,7636 16957,7692 17285,7692 17613,7692 17940,7814 18268,7814 18596,7814 18924,7911 19252,7911 19580,7911 19908,8017 20236,8017 20564,8590 20892,8590 21220,8590 21548,8805 21876,8805 22204,8814 22532,8814 22860,8814 23188,9116 23516,9116 23844,9239 24172,9239 24500,9385 24828,9385 25156,9445 25484,9445 25812,9716 26140,9716 26468,10196 26796,10196 27124,10224 27452,10224 27780,10281 28108,10426 28436,10426 28764,11409 29092,11426 29420,11471 29748,11661 30076,11682 30404,11783 30732,11855 31060,12144 31388,12240 31716,12370 32044,12509 32372,12571 32700,12691 33028,12770 33356,12842 33684,12870 34012,12944 34340,12995 34668,13034"/>
 <path fill="none" stroke="rgb(49,64,4)" stroke-width="80" stroke-linejoin="round" d="M 2525,2996 L 2853,2996 3181,2996 3509,2996 3837,2996 4165,4370 4493,4370 4821,4370 5149,4370 5477,4370 5805,6083 6133,6083 6461,6083 6789,6083 7117,6158 7445,6158 7773,6158 8101,6158 8429,6519 8757,6519 9085,6519 9413,6519 9741,6555 10069,6555 10397,6555 10725,6698 11053,6698 11381,6698 11709,6698 12037,6796 12365,6796 12693,6796 13021,6796 13349,6922 13677,6922 14005,6922 14333,6995 14661,6995 14989,6995 15317,6995 15645,7295 15973,7295 16301,7295 16629,7649 16957,7649 17285,7649 17613,7660 17940,7660 18268,7660 18596,7864 18924,7864 19252,7864 19580,8050 19908,8050 20236,8050 20564,8466 20892,8466 21220,8466 21548,8585 21876,8585 22204,8761 22532,8761 22860,8761 23188,8804 23516,8804 23844,9117 24172,9117 24500,9247 24828,9247 25156,9384 25484,9384 25812,9384 26140,9723 26468,10143 26796,10143 27124,10186 27452,10186 27780,10188 28108,10280 28436,10280 28764,10847 29092,11332 29420,11439 29748,11461 30076,11645 30404,11671 30732,11737 31060,11852 31388,12121 31716,12295 32044,12370 32372,12422 32700,12472 33028,12686 33356,12832 33684,12890 34012,12980 34340,13038 34668,13073"/>
 <path fill="none" stroke="rgb(174,207,0)" stroke-width="80" stroke-linejoin="round" d="M 2525,3035 L 2853,3035 3181,3035 3509,3035 3837,3035 4165,4437 4493,4437 4821,4437 5149,4437 5477,4437 5805,5408 6133,5408 6461,5408 6789,5408 7117,6071 7445,6071 7773,6071 8101,6071 8429,6105 8757,6105 9085,6105 9413,6105 9741,6149 10069,6149 10397,6149 10725,6149 11053,6419 11381,6419 11709,6419 12037,6419 12365,6796 12693,6796 13021,6796 13349,6796 13677,7393 14005,7393 14333,7393 14661,7555 14989,7555 15317,7555 15645,7632 15973,7632 16301,7632 16629,7664 16957,7664 17285,7664 17613,7688 17940,7688 18268,7688 18596,8012 18924,8012 19252,8012 19580,8541 19908,8541 20236,8541 20564,8587 20892,8587 21220,8744 21548,8744 21876,8744 22204,8790 22532,8790 22860,8812 23188,8812 23516,8812 23844,9158 24172,9158 24500,9261 24828,9261 25156,9430 25484,9430 25812,9748 26140,9748 26468,9757 26796,9757 27124,10184 27452,10184 27780,10217 28108,10423 28436,10423 28764,10980 29092,11165 29420,11423 29748,11469 30076,11570 30404,11645 30732,11855 31060,12068 31388,12241 31716,12288 32044,12370 32372,12407 32700,12557 33028,12698 33356,12763 33684,12846 34012,12914 34340,12957 34668,13005"/>
 <path fill="none" stroke="rgb(75,31,111)" stroke-width="80" stroke-linejoin="round" d="M 2525,3070 L 2853,3070 3181,3070 3509,3070 3837,3070 4165,4437 4493,4437 4821,4437 5149,4437 5477,4437 5805,5405 6133,5405 6461,5405 6789,5405 7117,5903 7445,5903 7773,5903 8101,5903 8429,6121 8757,6121 9085,6121 9413,6121 9741,6149 10069,6149 10397,6149 10725,6149 11053,6518 11381,6518 11709,6518 12037,6518 12365,6539 12693,6539 13021,6539 13349,6539 13677,6794 14005,6794 14333,6794 14661,7297 14989,7297 15317,7297 15645,7297 15973,7663 16301,7663 16629,7663 16957,7746 17285,7746 17613,7746 17940,8048 18268,8048 18596,8048 18924,8347 19252,8347 19580,8542 19908,8542 20236,8542 20564,8588 20892,8588 21220,8760 21548,8760 21876,8760 22204,9117 22532,9117 22860,9271 23188,9271 23516,9299 23844,9299 24172,9299 24500,9430 24828,9430 25156,9747 25484,9747 25812,9757 26140,9785 26468,9785 26796,10143 27124,10143 27452,10144 27780,10144 28108,10184 28436,10327 28764,10327 29092,10640 29420,10847 29748,10847 30076,10980 30404,11440 30732,11671 31060,12142 31388,12250 31716,12370 32044,12435 32372,12463 32700,12556 33028,12678 33356,12760 33684,12861 34012,12941 34340,12991 34668,13036"/>
 <path fill="none" stroke="rgb(255,149,14)" stroke-width="80" stroke-linejoin="round" d="M 2525,3034 L 2853,3034 3181,3034 3509,3034 3837,3034 4165,4370 4493,4370 4821,4370 5149,4370 5477,4370 5805,5939 6133,5939 6461,5939 6789,5939 7117,6060 7445,6060 7773,6060 8101,6060 8429,6093 8757,6093 9085,6093 9413,6093 9741,6419 10069,6419 10397,6419 10725,6419 11053,6698 11381,6698 11709,6698 12037,6698 12365,6997 12693,6997 13021,6997 13349,7391 13677,7391 14005,7391 14333,7555 14661,7555 14989,7555 15317,7637 15645,7637 15973,7637 16301,7699 16629,7699 16957,7699 17285,8155 17613,8155 17940,8155 18268,8462 18596,8462 18924,8462 19252,8586 19580,8586 19908,8744 20236,8744 20564,8744 20892,8804 21220,8804 21548,8813 21876,8813 22204,8813 22532,8976 22860,8976 23188,9183 23516,9183 23844,9207 24172,9207 24500,9207 24828,9239 25156,9239 25484,10221 25812,10280 26140,10280 26468,10399 26796,10399 27124,10575 27452,10696 27780,10745 28108,10745 28436,11410 28764,11469 29092,11492 29420,11659 29748,11758 30076,11771 30404,11830 30732,12077 31060,12223 31388,12308 31716,12399 32044,12422 32372,12619 32700,12698 33028,12805 33356,12910 33684,12988 34012,13020 34340,13046 34668,13066"/>
 <text class="TextShape"><tspan class="TextParagraph" font-family="Liberation Sans, sans-serif" font-size="353px" font-weight="400"><tspan class="TextPosition" x="2432" y="13700"><tspan fill="rgb(0,0,0)" stroke="none">1</tspan></tspan></tspan></text>
 <text class="TextShape"><tspan class="TextParagraph" font-family="Liberation Sans, sans-serif" font-size="353px" font-weight="400"><tspan class="TextPosition" x="3744" y="13700"><tspan fill="rgb(0,0,0)" stroke="none">5</tspan></tspan></tspan></text>
 <text class="TextShape"><tspan class="TextParagraph" font-family="Liberation Sans, sans-serif" font-size="353px" font-weight="400"><tspan class="TextPosition" x="5292" y="13700"><tspan fill="rgb(0,0,0)" stroke="none">10</tspan></tspan></tspan></text>
 <text class="TextShape"><tspan class="TextParagraph" font-family="Liberation Sans, sans-serif" font-size="353px" font-weight="400"><tspan class="TextPosition" x="6932" y="13700"><tspan fill="rgb(0,0,0)" stroke="none">15</tspan></tspan></tspan></text>
 <text class="TextShape"><tspan class="TextParagraph" font-family="Liberation Sans, sans-serif" font-size="353px" font-weight="400"><tspan class="TextPosition" x="8572" y="13700"><tspan fill="rgb(0,0,0)" stroke="none">20</tspan></tspan></tspan></text>
 <text class="TextShape"><tspan class="TextParagraph" font-family="Liberation Sans, sans-serif" font-size="353px" font-weight="400"><tspan class="TextPosition" x="10212" y="13700"><tspan fill="rgb(0,0,0)" stroke="none">25</tspan></tspan></tspan></text>
 <text class="TextShape"><tspan class="TextParagraph" font-family="Liberation Sans, sans-serif" font-size="353px" font-weight="400"><tspan class="TextPosition" x="11852" y="13700"><tspan fill="rgb(0,0,0)" stroke="none">30</tspan></tspan></tspan></text>
 <text class="TextShape"><tspan class="TextParagraph" font-family="Liberation Sans, sans-serif" font-size="353px" font-weight="400"><tspan class="TextPosition" x="13492" y="13700"><tspan fill="rgb(0,0,0)" stroke="none">35</tspan></tspan></tspan></text>
 <text class="TextShape"><tspan class="TextParagraph" font-family="Liberation Sans, sans-serif" font-size="353px" font-weight="400"><tspan class="TextPosition" x="15131" y="13700"><tspan fill="rgb(0,0,0)" stroke="none">40</tspan></tspan></tspan></text>
 <text class="TextShape"><tspan class="TextParagraph" font-family="Liberation Sans, sans-serif" font-size="353px" font-weight="400"><tspan class="TextPosition" x="16772" y="13700"><tspan fill="rgb(0,0,0)" stroke="none">45</tspan></tspan></tspan></text>
 <text class="TextShape"><tspan class="TextParagraph" font-family="Liberation Sans, sans-serif" font-size="353px" font-weight="400"><tspan class="TextPosition" x="18412" y="13700"><tspan fill="rgb(0,0,0)" stroke="none">50</tspan></tspan></tspan></text>
 <text class="TextShape"><tspan class="TextParagraph" font-family="Liberation Sans, sans-serif" font-size="353px" font-weight="400"><tspan class="TextPosition" x="20052" y="13700"><tspan fill="rgb(0,0,0)" stroke="none">55</tspan></tspan></tspan></text>
 <text class="TextShape"><tspan class="TextParagraph" font-family="Liberation Sans, sans-serif" font-size="353px" font-weight="400"><tspan class="TextPosition" x="21692" y="13700"><tspan fill="rgb(0,0,0)" stroke="none">60</tspan></tspan></tspan></text>
 <text class="TextShape"><tspan class="TextParagraph" font-family="Liberation Sans, sans-serif" font-size="353px" font-weight="400"><tspan class="TextPosition" x="23332" y="13700"><tspan fill="rgb(0,0,0)" stroke="none">65</tspan></tspan></tspan></text>
 <text class="TextShape"><tspan class="TextParagraph" font-family="Liberation Sans, sans-serif" font-size="353px" font-weight="400"><tspan class="TextPosition" x="24971" y="13700"><tspan fill="rgb(0,0,0)" stroke="none">70</tspan></tspan></tspan></text>
 <text class="TextShape"><tspan class="TextParagraph" font-family="Liberation Sans, sans-serif" font-size="353px" font-weight="400"><tspan class="TextPosition" x="26612" y="13700"><tspan fill="rgb(0,0,0)" stroke="none">75</tspan></tspan></tspan></text>
 <text class="TextShape"><tspan class="TextParagraph" font-family="Liberation Sans, sans-serif" font-size="353px" font-weight="400"><tspan class="TextPosition" x="28251" y="13700"><tspan fill="rgb(0,0,0)" stroke="none">80</tspan></tspan></tspan></text>
 <text class="TextShape"><tspan class="TextParagraph" font-family="Liberation Sans, sans-serif" font-size="353px" font-weight="400"><tspan class="TextPosition" x="29892" y="13700"><tspan fill="rgb(0,0,0)" stroke="none">85</tspan></tspan></tspan></text>
 <text class="TextShape"><tspan class="TextParagraph" font-family="Liberation Sans, sans-serif" font-size="353px" font-weight="400"><tspan class="TextPosition" x="31531" y="13700"><tspan fill="rgb(0,0,0)" stroke="none">90</tspan></tspan></tspan></text>
 <text class="TextShape"><tspan class="TextParagraph" font-family="Liberation Sans, sans-serif" font-size="353px" font-weight="400"><tspan class="TextPosition" x="33172" y="13700"><tspan fill="rgb(0,0,0)" stroke="none">95</tspan></tspan></tspan></text>
 <text class="TextShape"><tspan class="TextParagraph" font-family="Liberation Sans, sans-serif" font-size="353px" font-weight="400"><tspan class="TextPosition" x="2090" y="13253"><tspan fill="rgb(0,0,0)" stroke="none">0</tspan></tspan></tspan></text>
 <text class="TextShape"><tspan class="TextParagraph" font-family="Liberation Sans, sans-serif" font-size="353px" font-weight="400"><tspan class="TextPosition" x="1905" y="11984"><tspan fill="rgb(0,0,0)" stroke="none">20</tspan></tspan></tspan></text>
 <text class="TextShape"><tspan class="TextParagraph" font-family="Liberation Sans, sans-serif" font-size="353px" font-weight="400"><tspan class="TextPosition" x="1905" y="10715"><tspan fill="rgb(0,0,0)" stroke="none">40</tspan></tspan></tspan></text>
 <text class="TextShape"><tspan class="TextParagraph" font-family="Liberation Sans, sans-serif" font-size="353px" font-weight="400"><tspan class="TextPosition" x="1905" y="9447"><tspan fill="rgb(0,0,0)" stroke="none">60</tspan></tspan></tspan></text>
 <text class="TextShape"><tspan class="TextParagraph" font-family="Liberation Sans, sans-serif" font-size="353px" font-weight="400"><tspan class="TextPosition" x="1905" y="8178"><tspan fill="rgb(0,0,0)" stroke="none">80</tspan></tspan></tspan></text>
 <text class="TextShape"><tspan class="TextParagraph" font-family="Liberation Sans, sans-serif" font-size="353px" font-weight="400"><tspan class="TextPosition" x="1719" y="6909"><tspan fill="rgb(0,0,0)" stroke="none">100</tspan></tspan></tspan></text>
 <text class="TextShape"><tspan class="TextParagraph" font-family="Liberation Sans, sans-serif" font-size="353px" font-weight="400"><tspan class="TextPosition" x="1719" y="5640"><tspan fill="rgb(0,0,0)" stroke="none">120</tspan></tspan></tspan></text>
 <text class="TextShape"><tspan class="TextParagraph" font-family="Liberation Sans, sans-serif" font-size="353px" font-weight="400"><tspan class="TextPosition" x="1719" y="4372"><tspan fill="rgb(0,0,0)" stroke="none">140</tspan></tspan></tspan></text>
 <text class="TextShape"><tspan class="TextParagraph" font-family="Liberation Sans, sans-serif" font-size="353px" font-weight="400"><tspan class="TextPosition" x="1719" y="3103"><tspan fill="rgb(0,0,0)" stroke="none">160</tspan></tspan></tspan></text>
 <text class="TextShape"><tspan class="TextParagraph" font-family="Liberation Sans, sans-serif" font-size="353px" font-weight="400"><tspan class="TextPosition" x="1719" y="1835"><tspan fill="rgb(0,0,0)" stroke="none">180</tspan></tspan></tspan></text>
 <text class="TextShape"><tspan class="TextParagraph" font-family="Liberation Sans, sans-serif" font-size="459px" font-weight="400"><tspan class="TextPosition" x="14129" y="972"><tspan fill="rgb(0,0,0)" stroke="none">SeqOccIn bovine - Contigs NG(X)%</tspan></tspan></tspan></text>
 <path fill="none" stroke="rgb(0,69,134)" stroke-width="80" stroke-linejoin="round" d="M 28238,2134 L 29038,2134"/>
 <path fill="none" stroke="rgb(255,66,14)" stroke-width="80" stroke-linejoin="round" d="M 28238,2712 L 29038,2712"/>
 <path fill="none" stroke="rgb(255,211,32)" stroke-width="80" stroke-linejoin="round" d="M 28238,3290 L 29038,3290"/>
 <path fill="none" stroke="rgb(87,157,28)" stroke-width="80" stroke-linejoin="round" d="M 28238,3868 L 29038,3868"/>
 <path fill="none" stroke="rgb(126,0,33)" stroke-width="80" stroke-linejoin="round" d="M 28238,4446 L 29038,4446"/>
 <path fill="none" stroke="rgb(131,202,255)" stroke-width="80" stroke-linejoin="round" d="M 28238,5024 L 29038,5024"/>
 <path fill="none" stroke="rgb(49,64,4)" stroke-width="80" stroke-linejoin="round" d="M 28238,5602 L 29038,5602"/>
 <path fill="none" stroke="rgb(174,207,0)" stroke-width="80" stroke-linejoin="round" d="M 28238,6180 L 29038,6180"/>
 <path fill="none" stroke="rgb(75,31,111)" stroke-width="80" stroke-linejoin="round" d="M 28238,6758 L 29038,6758"/>
 <path fill="none" stroke="rgb(255,149,14)" stroke-width="80" stroke-linejoin="round" d="M 28238,7336 L 29038,7336"/>
 <text class="TextShape"><tspan class="TextParagraph" font-family="Liberation Sans, sans-serif" font-size="353px" font-weight="400"><tspan class="TextPosition" x="29138" y="2254"><tspan fill="rgb(0,0,0)" stroke="none">Father wtdbg2</tspan></tspan></tspan></text>
 <text class="TextShape"><tspan class="TextParagraph" font-family="Liberation Sans, sans-serif" font-size="353px" font-weight="400"><tspan class="TextPosition" x="29138" y="2832"><tspan fill="rgb(0,0,0)" stroke="none">Mother wtdbg2</tspan></tspan></tspan></text>
 <text class="TextShape"><tspan class="TextParagraph" font-family="Liberation Sans, sans-serif" font-size="353px" font-weight="400"><tspan class="TextPosition" x="29138" y="3410"><tspan fill="rgb(0,0,0)" stroke="none">Offspring wtdbg2</tspan></tspan></tspan></text>
 <text class="TextShape"><tspan class="TextParagraph" font-family="Liberation Sans, sans-serif" font-size="353px" font-weight="400"><tspan class="TextPosition" x="29138" y="3988"><tspan fill="rgb(0,0,0)" stroke="none">Offspring2 HiFi consensus</tspan></tspan></tspan></text>
 <text class="TextShape"><tspan class="TextParagraph" font-family="Liberation Sans, sans-serif" font-size="353px" font-weight="400"><tspan class="TextPosition" x="29138" y="4566"><tspan fill="rgb(0,0,0)" stroke="none">Offspring2 HiFi hap1</tspan></tspan></tspan></text>
 <text class="TextShape"><tspan class="TextParagraph" font-family="Liberation Sans, sans-serif" font-size="353px" font-weight="400"><tspan class="TextPosition" x="29138" y="5144"><tspan fill="rgb(0,0,0)" stroke="none">Offspring2 HiFi hap2</tspan></tspan></tspan></text>
 <text class="TextShape"><tspan class="TextParagraph" font-family="Liberation Sans, sans-serif" font-size="353px" font-weight="400"><tspan class="TextPosition" x="29138" y="5722"><tspan fill="rgb(0,0,0)" stroke="none">Offspring2 HiFi + HiC hap1</tspan></tspan></tspan></text>
 <text class="TextShape"><tspan class="TextParagraph" font-family="Liberation Sans, sans-serif" font-size="353px" font-weight="400"><tspan class="TextPosition" x="29138" y="6300"><tspan fill="rgb(0,0,0)" stroke="none">Offspring2 HiFi + HiC hap2</tspan></tspan></tspan></text>
 <text class="TextShape"><tspan class="TextParagraph" font-family="Liberation Sans, sans-serif" font-size="353px" font-weight="400"><tspan class="TextPosition" x="29138" y="6878"><tspan fill="rgb(0,0,0)" stroke="none">Offspring2 Hifi + Parent hap1</tspan></tspan></tspan></text>
 <text class="TextShape"><tspan class="TextParagraph" font-family="Liberation Sans, sans-serif" font-size="353px" font-weight="400"><tspan class="TextPosition" x="29138" y="7456"><tspan fill="rgb(0,0,0)" stroke="none">Offspring2 HiFi + Parent hap2</tspan></tspan></tspan></text>
 <text class="TextShape"><tspan class="TextParagraph" font-family="Liberation Sans, sans-serif" font-size="318px" font-weight="400"><tspan class="TextPosition" x="17597" y="14468"><tspan fill="rgb(0,0,0)" stroke="none">NG(X)%</tspan></tspan></tspan></text>
 <text class="TextShape" transform="translate(837,9249) rotate(-90) translate(-837,-9249)"><tspan class="TextParagraph" font-family="Liberation Sans, sans-serif" font-size="318px" font-weight="400"><tspan class="TextPosition" x="837" y="9249"><tspan fill="rgb(0,0,0)" stroke="none">Sequence length (Mb)</tspan></tspan></tspan></text>
</svg>